<?xml version="1.0" encoding="utf-8"?>
<!-- Generator: Adobe Illustrator 26.0.2, SVG Export Plug-In . SVG Version: 6.00 Build 0)  -->
<svg version="1.1" id="Layer_1" xmlns="http://www.w3.org/2000/svg" xmlns:xlink="http://www.w3.org/1999/xlink" x="0px" y="0px"
	 viewBox="0 0 605.73 135.62" style="enable-background:new 0 0 605.73 135.62;" xml:space="preserve">
<g>
	<path d="M69.21,72.99c9.49-4.23,14.12-12.07,14.12-19.4c0-17.36-15.78-27.83-36.73-27.98L8.36,25.47c-0.99,0-1.8,0.8-1.8,1.79
		v96.98c0,0.99,0.8,1.8,1.8,1.8h42.39c21.95,0,36.87-11.48,36.87-28.84c0-9-7.26-20.21-18.33-23.14
		C68.34,73.8,68.3,73.39,69.21,72.99z M33.76,45.83H45.3c7.03,0,12.48,3.3,12.48,9.9c0,5.74-3.01,11.05-15.06,11.05h-8.96
		c-0.99,0-1.8-0.8-1.8-1.8V47.63C31.96,46.64,32.77,45.83,33.76,45.83z M33.76,105.52c-0.99,0-1.8-0.8-1.8-1.8V85.51
		c0-0.99,0.8-1.8,1.8-1.8h9.82c14.63,0,18.51,6.31,18.51,12.05c0,5.74-4.45,9.76-11.91,9.76H33.76z"/>
	<path d="M164.18,72.99c9.49-4.23,14.12-12.07,14.12-19.4c0-17.36-15.78-27.83-36.73-27.98l-38.23-0.14c-0.99,0-1.8,0.8-1.8,1.79
		v96.98c0,0.99,0.8,1.8,1.8,1.8h42.39c21.95,0,36.87-11.48,36.87-28.84c0-9-7.26-20.21-18.33-23.14
		C163.32,73.8,163.28,73.39,164.18,72.99z M128.74,45.83h11.55c7.03,0,12.48,3.3,12.48,9.9c0,5.74-3.01,11.05-15.06,11.05h-8.96
		c-0.99,0-1.8-0.8-1.8-1.8V47.63C126.94,46.64,127.74,45.83,128.74,45.83z M128.74,105.52c-0.99,0-1.8-0.8-1.8-1.8V85.51
		c0-0.99,0.8-1.8,1.8-1.8h9.82c14.63,0,18.51,6.31,18.51,12.05c0,5.74-4.45,9.76-11.91,9.76H128.74z"/>
	<path d="M258.44,72.99c9.49-4.23,14.12-12.07,14.12-19.4c0-7.98-3.33-14.5-8.97-19.23c-0.39-0.33-0.74-0.62-0.98-0.83
		c-0.02-0.27-0.03-0.42-0.05-0.68c3.49-4.48,0.38-20.82-2.44-24.49c-0.5-0.65-1.53-0.32-1.6,0.49c-0.49,6.09-2.17,12.38-7.63,17.36
		c-0.69,0.63-2.01,0.99-2.92,0.78c-3.77-0.87-7.84-1.34-12.14-1.37l-25.87-0.09c-0.96,0-2.27-0.59-2.89-1.32
		c-3.92-4.59-5.25-10.02-5.69-15.3c-0.07-0.84-1.15-1.17-1.65-0.49c-1.93,2.61-3.97,11.07-3.93,17.56v98.28c0,0.99,0.8,1.8,1.8,1.8
		h42.39c21.95,0,36.87-11.48,36.87-28.84c0-9-7.26-20.21-18.33-23.14C257.68,73.83,257.64,73.34,258.44,72.99z M223,45.83h11.54
		c7.03,0,12.48,3.3,12.48,9.9c0,5.74-3.01,11.05-15.06,11.05H223c-0.99,0-1.8-0.8-1.8-1.8V47.63C221.2,46.64,222,45.83,223,45.83z
		 M223,105.52c-0.99,0-1.8-0.8-1.8-1.8V85.51c0-0.99,0.8-1.8,1.8-1.8h9.82c14.63,0,18.51,6.31,18.51,12.05
		c0,5.74-4.45,9.76-11.91,9.76H223z"/>
	<path d="M284.9,89.16c0,21.24,16.07,38.45,43.62,38.45c11.55,0,23.75-3.03,33.46-12.49c0.71-0.69,0.69-1.84,0.02-2.58
		c-2.52-2.8-7.24-8.58-9.74-11.43c-0.66-0.75-1.83-0.8-2.61-0.19c-6.03,4.68-12.32,6.9-18.98,6.9c-12.83,0-20.41-6.34-21.85-12.57
		c-0.22-0.97,0.56-1.78,1.55-1.78h53.65c0.99,0,1.89-0.7,1.92-1.58c0.02-0.54,0.02-1.08,0.02-1.58c0-26.26-17.07-40.17-39.6-40.17
		C300.83,50.14,284.9,67.93,284.9,89.16z M309.27,78.52c2.27-7.29,10.41-10.02,16.95-10.02c6.78,0,14.43,2.84,16.2,9.99
		c0.24,0.96-0.5,1.77-1.49,1.77h-30.26C309.67,80.27,308.98,79.47,309.27,78.52z"/>
	<path d="M430.91,60.16c-4.75-6.07-12.56-10.02-21.62-10.02c-21.81,0-35.73,17.07-35.73,38.6c0,21.95,14.49,38.88,35.87,38.88
		c9.75,0,16.76-3.85,21.5-10.29c0.59-0.8,1.02-0.67,1.02,0.32v6.59c0,0.99,0.8,1.8,1.8,1.8h21.08c0.99,0,1.8-0.8,1.8-1.8V53.51
		c0-0.99-0.8-1.8-1.8-1.8h-21.08c-0.99,0-1.8,0.8-1.8,1.8v6.3C431.96,60.81,431.52,60.94,430.91,60.16z M415.32,108.25
		c-10.47,0-16.93-8.61-16.93-19.51c0-10.47,6.17-19.08,16.64-19.08c10.47,0,17.5,7.89,17.5,19.8
		C432.54,101.22,425.08,108.25,415.32,108.25z"/>
	<path d="M497.86,77.83c-3.73-1.29-6.17-2.73-6.17-5.31c0-3.01,3.01-5.02,7.03-5.02c2.68,0,7.07,0.91,9.32,4.96
		c0.48,0.87,1.48,1.36,2.41,1l15.15-5.75c0.93-0.35,1.34-1.37,0.87-2.24c-6.58-12.16-17.54-15.33-27.45-15.33
		c-16.64,0-30.27,8.9-30.27,22.53c0,10.47,8.03,17.79,19.8,22.1l12.34,5.16c4.02,1.72,5.31,2.87,5.31,4.88
		c0,3.44-4.16,4.88-8.61,4.88c-5.43,0-11.35-1.96-13.69-8.46c-0.34-0.93-1.26-1.42-2.18-1.06l-14.6,5.84
		c-0.92,0.37-1.48,1.45-1.18,2.4c4.58,14.43,18.1,19.22,31.36,19.22c16.93,0,32-7.89,32-22.81c0-7.89-4.3-16.64-21.52-22.96
		L497.86,77.83z"/>
	<path d="M595.21,95.05h-14.05c-0.99,0-1.5,0.75-1.27,1.72c0.32,1.32,0.62,3.09,0.62,4.74c0,3.16-1.29,6.46-5.02,6.46
		c-3.3,0-4.73-2.44-4.73-5.74V72.17c0-0.99,0.8-1.8,1.8-1.8h15.92c0.99,0,1.8-0.8,1.8-1.8V53.51c0-0.99-0.8-1.8-1.8-1.8h-15.92
		c-0.99,0-1.8-0.8-1.8-1.8V35.29c0-0.99-0.8-1.8-1.8-1.8h-15.49c-0.99,0-1.94,0.79-2.12,1.77l-2.66,14.68
		c-0.18,0.98-1.13,1.77-2.12,1.77h-9.32c-0.99,0-1.8,0.8-1.8,1.8v15.06c0,0.99,0.8,1.8,1.8,1.8h7.16c0.99,0,1.8,0.8,1.8,1.8v28.76
		c0,21.67,13.92,26.69,26.97,26.69c15.64,0,25.97-8.75,25.97-23.67c-0.12-2.3-0.51-4.97-1.4-7.27
		C597.41,95.75,596.2,95.05,595.21,95.05z"/>
</g>
</svg>
