<?xml version="1.0" encoding="utf-8"?>
<!-- Generator: Adobe Illustrator 26.0.2, SVG Export Plug-In . SVG Version: 6.00 Build 0)  -->
<svg version="1.1" id="Layer_1" xmlns="http://www.w3.org/2000/svg" xmlns:xlink="http://www.w3.org/1999/xlink" x="0px" y="0px"
	 viewBox="0 0 512 512" style="enable-background:new 0 0 512 512;" xml:space="preserve">
<path d="M374.64,171.06c-38.83-29.12-75.77-28.31-75.77-28.31l-3.78,4.31c45.84,14.02,67.14,34.24,67.14,34.24
	c-28.04-15.37-55.55-22.92-81.16-25.89c-19.41-2.16-38.02-1.62-54.47,0.54c-1.62,0-2.97,0.27-4.58,0.54
	c-9.44,0.81-32.36,4.31-61.21,16.99c-9.98,4.58-15.91,7.82-15.91,7.82s22.38-21.3,70.92-35.32l-2.7-3.24c0,0-36.94-0.81-75.77,28.31
	c0,0-38.83,70.38-38.83,157.2c0,0,22.65,39.1,82.24,40.99c0,0,9.98-12.13,18.07-22.38c-34.24-10.25-47.19-31.82-47.19-31.82
	s2.7,1.89,7.55,4.58c0.27,0.27,0.54,0.54,1.08,0.81c0.81,0.54,1.62,0.81,2.43,1.35c6.74,3.77,13.48,6.74,19.68,9.17
	c11.06,4.31,24.27,8.63,39.64,11.59c20.22,3.77,43.95,5.12,69.84,0.27c12.67-2.16,25.62-5.93,39.1-11.59
	c9.44-3.51,19.95-8.63,31.01-15.91c0,0-13.48,22.11-48.8,32.09c8.09,10.25,17.8,21.84,17.8,21.84
	c59.59-1.89,82.51-40.99,82.51-40.99C413.47,241.44,374.64,171.06,374.64,171.06z M205.58,303.19c-15.1,0-27.5-13.48-27.5-29.93
	c0-16.45,12.13-29.93,27.5-29.93c15.37,0,27.77,13.48,27.5,29.93C233.08,289.71,220.95,303.19,205.58,303.19z M304,303.19
	c-15.1,0-27.5-13.48-27.5-29.93c0-16.45,12.13-29.93,27.5-29.93c15.37,0,27.5,13.48,27.5,29.93
	C331.5,289.71,319.37,303.19,304,303.19z"/>
<g>
	<path d="M482,30v452H30V30H482 M512,0H0v512h512V0L512,0z"/>
</g>
</svg>
