<?xml version="1.0" encoding="utf-8"?>
<!-- Generator: Adobe Illustrator 26.0.2, SVG Export Plug-In . SVG Version: 6.00 Build 0)  -->
<svg version="1.1" id="Layer_1" xmlns="http://www.w3.org/2000/svg" xmlns:xlink="http://www.w3.org/1999/xlink" x="0px" y="0px"
	 viewBox="0 0 512 512" style="enable-background:new 0 0 512 512;" xml:space="preserve">
<path d="M375.61,194.66c0.12,2.65,0.18,5.31,0.18,7.98c0,81.55-62.08,175.59-175.59,175.59c-34.86,0-67.29-10.22-94.6-27.72
	c4.83,0.57,9.74,0.85,14.72,0.85c28.91,0,55.52-9.86,76.65-26.42c-27.01-0.5-49.8-18.35-57.65-42.86c3.76,0.72,7.63,1.11,11.6,1.11
	c5.63,0,11.09-0.76,16.27-2.17c-28.24-5.66-49.51-30.61-49.51-60.5c0-0.27,0-0.53,0.01-0.79c8.32,4.63,17.83,7.41,27.95,7.72
	c-16.57-11.06-27.46-29.96-27.46-51.37c0-11.3,3.05-21.9,8.36-31.02c30.43,37.34,75.92,61.9,127.2,64.48
	c-1.06-4.52-1.6-9.23-1.6-14.07c0-34.07,27.64-61.71,61.72-61.71c17.75,0,33.79,7.5,45.05,19.5c14.06-2.77,27.26-7.91,39.19-14.98
	c-4.61,14.41-14.4,26.5-27.14,34.14c12.48-1.49,24.38-4.8,35.44-9.72C398.14,175.08,387.66,185.95,375.61,194.66z"/>
<g>
	<path d="M482,30v452H30V30H482 M512,0H0v512h512V0L512,0z"/>
</g>
</svg>
